<?xml version="1.0" encoding="UTF-8"?>
<svg version="1.1" xmlns="http://www.w3.org/2000/svg" width="512" height="512">
<path d="M0 0 C1.13953125 0.36222656 2.2790625 0.72445312 3.453125 1.09765625 C16.20607056 5.64127816 27.82258773 12.07492096 38 21 C38.73347656 21.59039062 39.46695313 22.18078125 40.22265625 22.7890625 C60.5365248 39.62771897 72.89005325 65.69741772 75.7890625 91.63476562 C78.32801805 120.10398018 71.17342235 149.51413747 52.77734375 171.828125 C45.68003825 180.08812022 37.99755658 187.82520627 29 194 C30.11117187 194.02578125 31.22234375 194.0515625 32.3671875 194.078125 C51.25783328 194.70717564 51.25783328 194.70717564 58.30859375 201.08984375 C64.06704831 207.2588833 66.30449968 212.05266478 66.37109375 220.5390625 C66.38012222 221.26056488 66.3891507 221.98206726 66.39845276 222.72543335 C66.4129175 224.25001915 66.42183259 225.77466649 66.42553711 227.29931641 C66.43736003 229.59778825 66.48651114 231.89350609 66.53710938 234.19140625 C66.62346866 242.39932212 66.16557389 248.56227984 61.91967773 255.86279297 C61.61618408 256.56807129 61.31269043 257.27334961 61 258 C62.42405617 261.55499412 62.42405617 261.55499412 65 264 C66.17747996 267.53243988 66.19962907 270.77009539 66.23828125 274.44921875 C66.246353 275.18066605 66.25442474 275.91211334 66.26274109 276.66572571 C66.27656363 278.21487065 66.28729397 279.76404581 66.29516602 281.31323242 C66.30665732 282.88721731 66.32706404 284.4611641 66.35668945 286.03491211 C66.54748766 296.17493088 66.58448508 303.69164886 59.625 311.75 C53.68872852 316.8382327 49.43534829 319.11654998 41.63230896 319.15390015 C40.98343297 319.1582824 40.33455697 319.16266465 39.66601807 319.1671797 C37.4875475 319.18055442 35.30911739 319.18674364 33.13061523 319.19287109 C31.57006142 319.20077333 30.00950943 319.20904236 28.44895935 319.21765137 C23.31885522 319.24386508 18.18874297 319.25918184 13.05859375 319.2734375 C11.29093992 319.27879811 9.52328613 319.28417562 7.7556324 319.28956985 C0.39959514 319.31120073 -6.95643994 319.32993518 -14.31250095 319.34119225 C-24.84386622 319.35741561 -35.37486161 319.39055166 -45.90608746 319.44759309 C-53.31600937 319.48635454 -60.72583263 319.50583247 -68.13585323 319.51111281 C-72.55841956 319.51475878 -76.98059132 319.52669877 -81.40304756 319.55921555 C-85.56873744 319.58940442 -89.73379629 319.59556986 -93.89957237 319.58383179 C-95.42249027 319.58361193 -96.94543836 319.59184398 -98.46825409 319.60948563 C-108.17316194 319.71572878 -116.34507433 319.00866332 -123.89687443 312.31990623 C-128.85670194 307.26581375 -131 300.99271373 -131 294 C-132.86918091 294.03927612 -132.86918091 294.03927612 -134.77612305 294.0793457 C-139.40712471 294.1699656 -144.0380483 294.22729228 -148.66967773 294.2746582 C-150.67274156 294.2997755 -152.67571398 294.33387595 -154.6784668 294.37719727 C-157.56061366 294.43797188 -160.44154721 294.46623732 -163.32421875 294.48828125 C-164.66355721 294.52699089 -164.66355721 294.52699089 -166.029953 294.56648254 C-166.87044693 294.5668602 -167.71094086 294.56723785 -168.5769043 294.56762695 C-169.31192673 294.57873001 -170.04694916 294.58983307 -170.804245 294.60127258 C-174.36007964 293.62756382 -175.73967198 291.88590207 -178 289 C-178.73644416 285.77553363 -178.67506022 282.61721338 -178.63491821 279.32104492 C-178.64271817 278.34024806 -178.65051812 277.3594512 -178.65855443 276.34893322 C-178.67851445 273.05906413 -178.66269351 269.77034664 -178.64697266 266.48046875 C-178.65374695 264.123335 -178.66264902 261.76620654 -178.67352295 259.40908813 C-178.69634479 253.00416245 -178.68746769 246.59963881 -178.67162752 240.19470596 C-178.66274357 236.19533799 -178.66441308 232.19599762 -178.66907883 228.19662476 C-178.66984499 227.53265912 -178.67061116 226.86869349 -178.67140054 226.18460768 C-178.67299917 224.83576398 -178.67462024 223.48692031 -178.6762635 222.13807666 C-178.69052044 209.49063029 -178.67412923 196.84336513 -178.64726166 184.19594848 C-178.62492284 173.34440876 -178.62880299 162.49313646 -178.65185547 151.64160156 C-178.67861454 139.03935626 -178.68914716 126.43726978 -178.67379415 113.83500004 C-178.67220141 112.49112513 -178.67062956 111.1472502 -178.66907883 109.80337524 C-178.66830745 109.14216728 -178.66753607 108.48095931 -178.66674132 107.79971474 C-178.66242459 103.14069964 -178.66995434 98.48184066 -178.68147659 93.82284546 C-178.69590171 87.55184941 -178.6859346 81.28135924 -178.65700531 75.01041794 C-178.65038414 72.70656551 -178.65230963 70.40267063 -178.66331863 68.09883499 C-178.6769442 64.95829691 -178.65989304 61.81938876 -178.63491821 58.67895508 C-178.64607182 57.76310229 -178.65722543 56.84724951 -178.66871703 55.90364361 C-178.59936818 51.42060026 -178.44916744 49.57823141 -175.61554241 45.93039131 C-172.68750614 43.76936508 -171.46274789 43.40596637 -167.87768555 43.51513672 C-166.3853968 43.53892899 -166.3853968 43.53892899 -164.86296082 43.5632019 C-163.79830093 43.60164215 -162.73364105 43.6400824 -161.63671875 43.6796875 C-159.36525052 43.70221241 -157.09376442 43.7229912 -154.82226562 43.7421875 C-151.25316104 43.80012193 -147.6863821 43.87503365 -144.1184082 43.98242188 C-130.82562783 44.98381282 -130.82562783 44.98381282 -118.81835938 40.71289062 C-116.80071169 37.89048317 -115.4009542 35.16472172 -114 32 C-107.97913583 24.42688932 -100.19504591 18.0514119 -92 13 C-90.96488281 12.34386719 -89.92976563 11.68773437 -88.86328125 11.01171875 C-80.04483995 5.58921483 -70.9081805 1.9381401 -61 -1 C-59.86820312 -1.34160156 -58.73640625 -1.68320313 -57.5703125 -2.03515625 C-39.20936993 -6.59358887 -17.9942202 -5.73271361 0 0 Z M-90 33 C-90.84949219 33.68707031 -91.69898438 34.37414062 -92.57421875 35.08203125 C-109.07051105 49.10261659 -119.87713551 69.62768807 -123 91 C-123.90204101 105.3405857 -123.90185562 119.38535057 -119 133 C-118.76394043 133.65613281 -118.52788086 134.31226563 -118.28466797 134.98828125 C-109.41117383 158.92554719 -92.25399101 176.16141189 -69.5625 187.3125 C-46.02575651 197.69635742 -21.16401647 197.39741603 2.71484375 188.37890625 C11.39395471 184.73595004 18.81948279 180.05465214 26 174 C26.80179688 173.35546875 27.60359375 172.7109375 28.4296875 172.046875 C45.9568172 157.30442946 56.77002676 134.63009876 59 112 C60.48639861 87.22668989 53.62489125 63.66995992 37.33203125 44.62109375 C36.56246094 43.75613281 35.79289063 42.89117187 35 42 C34.32324219 41.22785156 33.64648438 40.45570313 32.94921875 39.66015625 C17.85498234 23.48572967 -4.04592897 13.7120472 -26.04296875 12.6171875 C-50.09070384 11.93875349 -71.18746271 17.44632744 -90 33 Z M-98 190 C-98 191.65 -98 193.3 -98 195 C-96.02 195 -94.04 195 -92 195 C-93.6454378 193.31237149 -95.31288577 191.6459651 -97 190 C-97.33 190 -97.66 190 -98 190 Z M-112 215 C-115.1642251 219.54838697 -114.32895377 225.12293132 -114.3125 230.4375 C-114.32861328 231.47455078 -114.34472656 232.51160156 -114.36132812 233.58007812 C-114.50336035 240.85704411 -114.50336035 240.85704411 -111 247 C-107.6175268 249.16076633 -104.83298781 249.25729646 -100.86477661 249.27415466 C-99.60582581 249.28412979 -98.346875 249.29410492 -97.04977417 249.30438232 C-95.65704358 249.30527809 -94.26431283 249.30594168 -92.87158203 249.30639648 C-91.40290913 249.31401909 -89.93424021 249.32244677 -88.46557617 249.33161926 C-84.47792633 249.35356035 -80.49035317 249.36236254 -76.50264978 249.36744571 C-74.01069766 249.37108953 -71.51876561 249.3773297 -69.02682114 249.3844471 C-60.33151111 249.40893957 -51.63626073 249.4219932 -42.94091797 249.42553711 C-34.83830601 249.42917296 -26.73607272 249.45907216 -18.63357651 249.50094169 C-11.67463544 249.53564007 -4.7158199 249.55108546 2.2432071 249.55178314 C6.39846058 249.55257608 10.55332825 249.56132179 14.70849228 249.58978081 C18.61731791 249.61595429 22.52543766 249.6181713 26.43431091 249.60212517 C27.86698572 249.6003101 29.29970105 249.60700685 30.73228836 249.62294388 C39.29714725 250.0056719 39.29714725 250.0056719 46.85067749 246.64796448 C49.43847328 243.4598011 49.77117727 241.85617604 49.796875 237.78125 C49.80460938 236.60175781 49.81234375 235.42226563 49.8203125 234.20703125 C49.79710937 232.98371094 49.77390625 231.76039063 49.75 230.5 C49.77320313 229.27667969 49.79640625 228.05335938 49.8203125 226.79296875 C49.81257812 225.61347656 49.80484375 224.43398438 49.796875 223.21875 C49.78672363 221.6090332 49.78672363 221.6090332 49.77636719 219.96679688 C48.92565381 216.7158947 47.82986297 215.12231676 45.18935204 213.04991913 C40.11439182 210.61618635 34.14291514 211.32963114 28.62866211 211.38476562 C27.15806946 211.38126213 25.68748061 211.37560097 24.21690369 211.36795044 C20.23332641 211.35372653 16.25044138 211.37073913 12.26693034 211.39423561 C8.09458751 211.41437074 3.92227267 211.40846374 -0.25010681 211.40612793 C-7.25515128 211.40618147 -14.25992571 211.42591895 -21.26489258 211.45800781 C-29.36067836 211.49491357 -37.45611066 211.50368104 -45.55196959 211.4967103 C-53.34534285 211.4904031 -61.13859506 211.50116267 -68.93194389 211.52067566 C-72.24643111 211.52884486 -75.56085642 211.5315601 -78.87535286 211.52998352 C-82.77837833 211.52910395 -86.68106839 211.54333984 -90.58400536 211.56921005 C-92.01545714 211.57636587 -93.44694463 211.57845827 -94.87841034 211.57509232 C-96.83380381 211.57137171 -98.78920437 211.58798231 -100.74452209 211.60559082 C-101.8382718 211.60931953 -102.9320215 211.61304825 -104.05891514 211.61688995 C-107.4039487 212.05261895 -109.2878074 213.0288226 -112 215 Z M-112.36987305 268.87023926 C-114.04960968 272.09524806 -114.64231838 274.01671911 -114.6640625 277.625 C-114.67050781 278.66140625 -114.67695313 279.6978125 -114.68359375 280.765625 C-114.66425781 281.83296875 -114.64492188 282.9003125 -114.625 284 C-114.64433594 285.06734375 -114.66367187 286.1346875 -114.68359375 287.234375 C-114.67714844 288.27078125 -114.67070312 289.3071875 -114.6640625 290.375 C-114.65842285 291.31085938 -114.6527832 292.24671875 -114.64697266 293.2109375 C-113.72503001 297.18538007 -112.41615162 299.77761607 -109 302 C-104.18036541 302.92903132 -99.35619074 302.81021765 -94.46679688 302.76049805 C-92.96678904 302.76699382 -91.46679045 302.77605668 -89.96681213 302.78749084 C-85.89839737 302.81055757 -81.83092154 302.79586218 -77.762537 302.77302146 C-73.50342103 302.7540971 -69.24436775 302.7652651 -64.98522949 302.77192688 C-57.8329376 302.77826627 -50.68102162 302.76000402 -43.52880859 302.72729492 C-35.26193309 302.6898006 -26.99576971 302.69157927 -18.72885656 302.7143361 C-10.77366175 302.73529057 -2.81872992 302.72800813 5.13645935 302.70801735 C8.52078266 302.70003435 11.90488332 302.70201913 15.28919983 302.71204185 C19.27528925 302.72259865 23.26054956 302.70845117 27.24650764 302.67529869 C28.70859079 302.6670957 30.17074996 302.66737066 31.63282585 302.67677689 C33.62985261 302.68821288 35.62698751 302.66576566 37.62390137 302.64164734 C38.74107292 302.63846339 39.85824448 302.63527945 41.00926971 302.63199902 C44.95119544 301.79899405 46.46276056 300.05259441 49 297 C50.57336856 292.95275431 50.22210407 288.4799864 50.25 284.1875 C50.270625 283.40568359 50.29125 282.62386719 50.3125 281.81835938 C50.34834896 276.45445861 49.59119984 272.72833429 47 268 C43.48083279 265.65388853 42.0317549 265.7412722 37.8644104 265.71911621 C35.93801476 265.70198578 35.93801476 265.70198578 33.97270203 265.68450928 C32.54641762 265.68201859 31.12013278 265.67976839 29.69384766 265.67773438 C28.19414277 265.66847736 26.6944426 265.65842795 25.19474792 265.64764404 C21.11827538 265.62140002 17.0418687 265.60850727 12.96532488 265.59962273 C10.4189455 265.59376124 7.87258415 265.58555168 5.32621384 265.57661438 C-2.63957619 265.54926693 -10.60532505 265.52993185 -18.57115877 265.5222106 C-27.76917947 265.51324613 -36.96660618 265.47813549 -46.16444623 265.42020941 C-53.27281871 265.37699481 -60.38102393 265.35680314 -67.48952639 265.35412836 C-71.73593957 265.35203105 -75.98179432 265.34019203 -80.22806931 265.30448914 C-84.2223171 265.27155833 -88.21558581 265.26719951 -92.20992088 265.28476715 C-93.67527703 265.28630961 -95.14068547 265.27759894 -96.60590935 265.25785065 C-105.30831141 264.72186687 -105.30831141 264.72186687 -112.36987305 268.87023926 Z " fill="#2C57FE" transform="translate(419,172)"/>
<path d="M0 0 C0.68505615 -0.00861557 1.3701123 -0.01723114 2.07592773 -0.02610779 C4.33559184 -0.04877033 6.59401591 -0.04202896 8.85375977 -0.03295898 C10.42790597 -0.03819484 12.00204902 -0.04447119 13.57618713 -0.05174255 C16.8740211 -0.06214746 20.17142362 -0.05758489 23.46923828 -0.04296875 C27.6908323 -0.02578796 31.91106436 -0.04926526 36.13250637 -0.08445835 C39.38313274 -0.10644445 42.63343389 -0.10498797 45.8841114 -0.09669304 C47.44021154 -0.09587402 48.99633568 -0.1027281 50.55236626 -0.11746407 C52.73106837 -0.13493267 54.90733243 -0.12035338 57.0859375 -0.09765625 C58.94314674 -0.09621361 58.94314674 -0.09621361 60.83787537 -0.09474182 C65.14788285 0.73329274 66.41253981 2.09675993 69.10766602 5.53344727 C69.60022933 8.48598122 69.78517522 10.86022136 69.74258423 13.80773926 C69.75038418 14.63744468 69.75818413 15.46715011 69.76622045 16.32199812 C69.78615516 19.10061591 69.7703705 21.87786633 69.75463867 24.65649414 C69.76141414 26.64910176 69.77031687 28.64170312 69.78118896 30.6342926 C69.80399713 36.04547265 69.79513953 41.45617643 69.77929354 46.86736488 C69.7666425 52.52784136 69.77837244 58.18827682 69.78622437 63.84875488 C69.79532323 73.35489226 69.78332671 82.86083546 69.75952148 92.36694336 C69.73230988 103.36033104 69.74112387 114.35325509 69.76865351 125.34663153 C69.79133674 134.78201694 69.79454847 144.2172627 69.78146017 153.65266657 C69.77366138 159.28947201 69.77263596 164.92605947 69.78914261 170.56285095 C69.80357653 175.86208253 69.79358497 181.16071585 69.76467133 186.45988274 C69.7580548 188.40574589 69.75996782 190.35165931 69.77098465 192.29750252 C69.78462944 194.95206849 69.7675383 197.60471215 69.74258423 200.25915527 C69.75373784 201.03104297 69.76489145 201.80293067 69.77638304 202.5982089 C69.70406749 206.55820759 69.24575174 208.3573674 66.77234554 211.5113287 C63.34759725 214.11023301 61.35956607 214.16123111 57.0859375 214.16455078 C56.05572479 214.17528374 56.05572479 214.17528374 55.00469971 214.18623352 C52.74536648 214.20307668 50.48802986 214.18374932 48.22875977 214.16235352 C46.65364925 214.16318254 45.07853883 214.16564319 43.50343323 214.16966248 C40.20726385 214.17251731 36.91177519 214.15784945 33.61572266 214.13037109 C29.39305708 214.09625986 25.17160613 214.10231827 20.9488821 214.12103367 C17.69828686 214.13160632 14.44797386 214.1226641 11.19740486 214.10764885 C9.64050192 214.10247034 8.08356947 214.10294484 6.52667046 214.1091938 C4.35046955 214.11465074 2.17600315 214.09426091 0 214.06689453 C-1.2373439 214.06069595 -2.47468781 214.05449738 -3.74952698 214.04811096 C-7.6380429 213.41133054 -8.56376441 212.68328926 -10.89233398 209.53344727 C-11.2851305 206.65977611 -11.43299497 204.16952708 -11.40026855 201.29675293 C-11.40650852 200.45902926 -11.41274848 199.62130559 -11.41917753 198.75819635 C-11.43515262 195.94666691 -11.42248577 193.13599901 -11.40991211 190.32446289 C-11.41533122 188.31067905 -11.42245269 186.29689917 -11.43115234 184.28312683 C-11.44941362 178.81003061 -11.44230652 173.33723543 -11.429636 167.86413383 C-11.4195229 162.14179537 -11.42889698 156.41948301 -11.43518066 150.69714355 C-11.44246199 141.08670413 -11.4328566 131.47638758 -11.41381836 121.8659668 C-11.39204876 110.74823805 -11.39909978 99.63080271 -11.42112398 88.51308107 C-11.43926412 78.97498704 -11.44184307 69.43698142 -11.4313693 59.89887571 C-11.42512677 54.19895842 -11.42431967 48.49917911 -11.43751526 42.79927063 C-11.44905291 37.44104054 -11.44108602 32.08318944 -11.41793823 26.72500038 C-11.41264001 24.75613853 -11.41418387 22.7872449 -11.42298889 20.81839561 C-11.43388404 18.13521073 -11.42025424 15.45324813 -11.40026855 12.7701416 C-11.40919144 11.98687705 -11.41811433 11.20361249 -11.42730761 10.39661264 C-11.37657501 6.89676748 -11.16473883 4.90192765 -9.05701351 2.05082035 C-5.98808588 -0.10040256 -3.72751412 0.01867329 0 0 Z " fill="#D0E6FE" transform="translate(145.892333984375,252.466552734375)"/>
<path d="M0 0 C0.68680847 -0.0071553 1.37361694 -0.01431061 2.08123779 -0.02168274 C4.34057102 -0.0385259 6.59790764 -0.01919854 8.85717773 0.00219727 C10.43228825 0.00136824 12.00739867 -0.00109241 13.58250427 -0.00511169 C16.87867365 -0.00796653 20.17416231 0.00670133 23.47021484 0.03417969 C27.69288042 0.06829092 31.91433137 0.06223251 36.1370554 0.04351711 C39.38765064 0.03294447 42.63796364 0.04188668 45.88853264 0.05690193 C47.44543558 0.06208044 49.00236803 0.06160594 50.55926704 0.05535698 C52.73546795 0.04990005 54.90993435 0.07028987 57.0859375 0.09765625 C58.3232814 0.10385483 59.56062531 0.11005341 60.83546448 0.11643982 C64.66430876 0.74344846 65.61131048 1.61293315 67.97827148 4.63110352 C68.48163605 7.37664032 68.48163605 7.37664032 68.48620605 10.58996582 C68.49748535 11.80973618 68.50876465 13.02950653 68.52038574 14.28623962 C68.51260881 15.63492059 68.50441615 16.98359921 68.49584961 18.33227539 C68.50127072 19.75493588 68.50839332 21.17759075 68.51708984 22.60023499 C68.53532787 26.46185375 68.52825395 30.32304514 68.5155735 34.1846714 C68.5054482 38.22538024 68.51483787 42.26605242 68.52111816 46.3067627 C68.52839596 53.09251477 68.51880348 59.87809272 68.49975586 66.66381836 C68.47798675 74.50969443 68.48503803 82.35515473 68.50706148 90.20102072 C68.52521179 96.93660081 68.52777565 103.67205573 68.5173068 110.40765238 C68.5110698 114.43084942 68.5102418 118.45385102 68.52345276 122.47703552 C68.53500541 126.25943405 68.52699692 130.04129642 68.50387573 133.82363701 C68.49858541 135.21197558 68.50010804 136.60035925 68.50892639 137.98867989 C68.51985072 139.88318397 68.5037242 141.77778663 68.48620605 143.67224121 C68.48469795 144.73263863 68.48318985 145.79303604 68.48163605 146.88556671 C67.84896133 150.33640902 66.73487445 151.52024082 63.97827148 153.63110352 C60.79077148 154.14576721 60.79077148 154.14576721 56.97827148 154.16455078 C56.28185547 154.17316635 55.58543945 154.18178192 54.86791992 154.19065857 C52.57099 154.21332065 50.27527983 154.20658063 47.97827148 154.19750977 C46.37930946 154.20274504 44.78035054 154.20902116 43.18139648 154.21629333 C39.83229019 154.2266977 36.48360877 154.2221355 33.13452148 154.20751953 C28.84333558 154.19032467 24.55348777 154.21383384 20.26245117 154.24900913 C16.96125421 154.27097214 13.66037805 154.26954458 10.35913086 154.26124382 C8.77708467 154.26042381 7.19501505 154.26729683 5.61303711 154.28201485 C3.40061219 154.29944394 1.19059944 154.28493752 -1.02172852 154.26220703 C-2.27985352 154.26124527 -3.53797852 154.26028351 -4.83422852 154.2592926 C-8.02172852 153.63110352 -8.02172852 153.63110352 -10.18878078 151.46662045 C-12.3073492 148.18925661 -12.5259904 146.50135149 -12.53639221 142.63464355 C-12.54911667 141.431772 -12.56184113 140.22890045 -12.57495117 138.98957825 C-12.56842529 137.67825424 -12.56189941 136.36693024 -12.55517578 135.01586914 C-12.56223667 133.61438591 -12.57098241 132.2129103 -12.58128357 130.81144714 C-12.60376729 127.01181672 -12.60084064 123.21260302 -12.5919621 119.41293144 C-12.5868491 116.23935896 -12.59414718 113.06586457 -12.60143417 109.89230013 C-12.61842951 102.40558821 -12.61487062 94.91908014 -12.59814453 87.43237305 C-12.58121682 79.7108292 -12.59706708 71.9898504 -12.62936741 64.26836824 C-12.65606179 57.63550526 -12.66333997 51.0028182 -12.65485233 44.3699069 C-12.6499234 40.40979182 -12.65213667 36.45001685 -12.67263985 32.48994446 C-12.6909954 28.76653782 -12.68504112 25.04394436 -12.66044044 21.32058144 C-12.6530457 19.30458945 -12.67028828 17.2885542 -12.68826294 15.27262878 C-12.59636594 6.53700148 -12.59636594 6.53700148 -9.92114258 2.31959534 C-6.35435762 0.24245592 -4.12258975 0.00320234 0 0 Z " fill="#2B57FD" transform="translate(40.021728515625,312.368896484375)"/>
<path d="M0 0 C0.68505615 -0.00861557 1.3701123 -0.01723114 2.07592773 -0.02610779 C4.33559184 -0.04877033 6.59401591 -0.04202896 8.85375977 -0.03295898 C10.42790597 -0.03819484 12.00204902 -0.04447119 13.57618713 -0.05174255 C16.8740211 -0.06214746 20.17142362 -0.05758489 23.46923828 -0.04296875 C27.6908323 -0.02578796 31.91106436 -0.04926526 36.13250637 -0.08445835 C39.38313274 -0.10644445 42.63343389 -0.10498797 45.8841114 -0.09669304 C47.44021154 -0.09587402 48.99633568 -0.1027281 50.55236626 -0.11746407 C52.73106837 -0.13493267 54.90733243 -0.12035338 57.0859375 -0.09765625 C58.94314674 -0.09621361 58.94314674 -0.09621361 60.83787537 -0.09474182 C65.14788285 0.73329274 66.41253981 2.09675993 69.10766602 5.53344727 C69.60022933 8.48598122 69.78517522 10.86022136 69.74258423 13.80773926 C69.75038418 14.63744468 69.75818413 15.46715011 69.76622045 16.32199812 C69.78615516 19.10061591 69.7703705 21.87786633 69.75463867 24.65649414 C69.76141414 26.64910176 69.77031687 28.64170312 69.78118896 30.6342926 C69.80399713 36.04547265 69.79513953 41.45617643 69.77929354 46.86736488 C69.7666425 52.52784136 69.77837244 58.18827682 69.78622437 63.84875488 C69.79532323 73.35489226 69.78332671 82.86083546 69.75952148 92.36694336 C69.73230988 103.36033104 69.74112387 114.35325509 69.76865351 125.34663153 C69.79133674 134.78201694 69.79454847 144.2172627 69.78146017 153.65266657 C69.77366138 159.28947201 69.77263596 164.92605947 69.78914261 170.56285095 C69.80357653 175.86208253 69.79358497 181.16071585 69.76467133 186.45988274 C69.7580548 188.40574589 69.75996782 190.35165931 69.77098465 192.29750252 C69.78462944 194.95206849 69.7675383 197.60471215 69.74258423 200.25915527 C69.75373784 201.03104297 69.76489145 201.80293067 69.77638304 202.5982089 C69.70406749 206.55820759 69.24575174 208.3573674 66.77234554 211.5113287 C63.34759725 214.11023301 61.35956607 214.16123111 57.0859375 214.16455078 C56.05572479 214.17528374 56.05572479 214.17528374 55.00469971 214.18623352 C52.74536648 214.20307668 50.48802986 214.18374932 48.22875977 214.16235352 C46.65364925 214.16318254 45.07853883 214.16564319 43.50343323 214.16966248 C40.20726385 214.17251731 36.91177519 214.15784945 33.61572266 214.13037109 C29.39305708 214.09625986 25.17160613 214.10231827 20.9488821 214.12103367 C17.69828686 214.13160632 14.44797386 214.1226641 11.19740486 214.10764885 C9.64050192 214.10247034 8.08356947 214.10294484 6.52667046 214.1091938 C4.35046955 214.11465074 2.17600315 214.09426091 0 214.06689453 C-1.2373439 214.06069595 -2.47468781 214.05449738 -3.74952698 214.04811096 C-7.6380429 213.41133054 -8.56376441 212.68328926 -10.89233398 209.53344727 C-11.2851305 206.65977611 -11.43299497 204.16952708 -11.40026855 201.29675293 C-11.40650852 200.45902926 -11.41274848 199.62130559 -11.41917753 198.75819635 C-11.43515262 195.94666691 -11.42248577 193.13599901 -11.40991211 190.32446289 C-11.41533122 188.31067905 -11.42245269 186.29689917 -11.43115234 184.28312683 C-11.44941362 178.81003061 -11.44230652 173.33723543 -11.429636 167.86413383 C-11.4195229 162.14179537 -11.42889698 156.41948301 -11.43518066 150.69714355 C-11.44246199 141.08670413 -11.4328566 131.47638758 -11.41381836 121.8659668 C-11.39204876 110.74823805 -11.39909978 99.63080271 -11.42112398 88.51308107 C-11.43926412 78.97498704 -11.44184307 69.43698142 -11.4313693 59.89887571 C-11.42512677 54.19895842 -11.42431967 48.49917911 -11.43751526 42.79927063 C-11.44905291 37.44104054 -11.44108602 32.08318944 -11.41793823 26.72500038 C-11.41264001 24.75613853 -11.41418387 22.7872449 -11.42298889 20.81839561 C-11.43388404 18.13521073 -11.42025424 15.45324813 -11.40026855 12.7701416 C-11.40919144 11.98687705 -11.41811433 11.20361249 -11.42730761 10.39661264 C-11.37657501 6.89676748 -11.16473883 4.90192765 -9.05701351 2.05082035 C-5.98808588 -0.10040256 -3.72751412 0.01867329 0 0 Z M5.10766602 16.53344727 C5.10766602 76.26344727 5.10766602 135.99344727 5.10766602 197.53344727 C20.61766602 197.53344727 36.12766602 197.53344727 52.10766602 197.53344727 C52.10766602 137.80344727 52.10766602 78.07344727 52.10766602 16.53344727 C36.59766602 16.53344727 21.08766602 16.53344727 5.10766602 16.53344727 Z " fill="#2D58FE" transform="translate(145.892333984375,252.466552734375)"/>
<path d="M0 0 C10.23 0 20.46 0 31 0 C30.01 2.97 29.02 5.94 28 9 C27.25251171 11.89458398 26.53758856 14.7747607 25.875 17.6875 C25.70613281 18.40744141 25.53726562 19.12738281 25.36328125 19.86914062 C18.41976632 49.85747085 25.18252934 78.27645169 40.77783203 104.25927734 C42.09428659 106.13429153 43.58764267 107.59827146 45.21484375 109.20703125 C49.31101415 113.8543962 49.06706818 119.05132438 49 125 C48.99371582 126.6240979 48.99371582 126.6240979 48.98730469 128.28100586 C48.67392482 136.08021742 48.67392482 136.08021742 45.890625 139.87890625 C43.25 141.5625 43.25 141.5625 40.48828125 142.8359375 C36.56040421 144.67346868 35.68824887 147.10968739 34 151 C32.22471876 156.46402127 32.77543587 162.41994025 32.75976562 168.10693359 C32.75009458 170.22924518 32.71906247 172.35057302 32.6875 174.47265625 C32.62273857 182.73241705 33.05425214 189.03282986 37.33203125 196.24609375 C38 198 38 198 37.13671875 199.97265625 C36.1816434 201.34992124 35.2233809 202.72498233 34.26171875 204.09765625 C32.31382435 208.16297512 32.31382435 208.16297512 32 218 C21.44 218 10.88 218 0 218 C0 146.06 0 74.12 0 0 Z " fill="#CDE4FD" transform="translate(257,232)"/>
<path d="M0 0 C15.84 0 31.68 0 48 0 C48 39.93 48 79.86 48 121 C32.16 121 16.32 121 0 121 C0 81.07 0 41.14 0 0 Z " fill="#CEE4FD" transform="translate(44,329)"/>
<path d="M0 0 C2.9375 1.75 2.9375 1.75 5 5 C5.4092855 9.03513524 5.28999239 12.95943942 5 17 C6.010625 17.10054687 7.02125 17.20109375 8.0625 17.3046875 C17.47466182 18.96675576 27.1973945 24.30301447 33 32 C37.55800462 38.68225986 38.93427518 44.97858023 38 53 C35.89559873 56.45121809 34.43842985 56.87245677 30.5625 58 C27 58 27 58 24.25 56.6875 C21.49448135 53.39618606 20.87983583 50.49160607 19.79296875 46.40234375 C18.13541864 41.38070181 14.45536219 39.11612455 10 36.75 C1.50911734 32.82869851 -6.92345256 33.15874193 -15.703125 36.08984375 C-20.20623208 37.87423822 -23.14030842 39.77979259 -25.9375 43.75 C-27.60014188 48.83572809 -26.69030963 52.92907112 -25 58 C-22.73342615 59.15342815 -22.73342615 59.15342815 -20 60 C-19.13246094 60.30679688 -18.26492188 60.61359375 -17.37109375 60.9296875 C-10.62179007 63.10456299 -3.96380277 64.64044924 3 65.9375 C25.92590799 70.30433962 25.92590799 70.30433962 33 79 C38.21909328 87.302373 38.74842109 95.30260107 38 105 C35.83058721 113.82140742 29.663096 120.56022209 22.125 125.3125 C16.79318336 128.29994535 11.19534364 131 5 131 C5.08701172 132.21236328 5.08701172 132.21236328 5.17578125 133.44921875 C5.54389122 142.16816637 5.54389122 142.16816637 2.875 146.25 C-0.49009839 148.29832076 -2.12859307 148.57659252 -6 148 C-8.56015624 147.14661459 -9.64401972 146.55543022 -11.1015625 144.28125 C-12.20875321 141.46994836 -12.19671626 139.26208307 -12.125 136.25 C-12.10695313 135.26515625 -12.08890625 134.2803125 -12.0703125 133.265625 C-12.04710937 132.51796875 -12.02390625 131.7703125 -12 131 C-13.918125 130.6596875 -13.918125 130.6596875 -15.875 130.3125 C-26.01363708 128.03290078 -35.01638186 122.79037557 -40.8125 114.0625 C-44.17323444 108.24754502 -45.50774465 102.72761663 -45 96 C-44.14455592 93.36238076 -43.49752294 92.35537353 -41.25 90.75 C-38.2251326 89.74171087 -36.17387527 89.54658925 -33 90 C-29.44947398 92.58220074 -27.87396554 94.72142547 -27 98.9375 C-26.09897663 103.20931613 -24.45904981 106.27002392 -21 109 C-11.4563274 114.30580733 -2.173592 114.94974794 8.22265625 112.01953125 C12.84435611 110.32295788 16.33291872 108.10197205 19.4375 104.1875 C20.65965841 99.43466173 20.80245229 95.60490459 18.625 91.25 C11.35925371 85.02221746 1.11291039 83.7719548 -8 82 C-31.78201044 77.37572019 -31.78201044 77.37572019 -40 68 C-44.67839627 60.86714075 -45.83688021 53.4166238 -45 45 C-42.68806867 34.97234605 -37.7787429 28.1699955 -29.125 22.6875 C-23.79318336 19.70005465 -18.19534364 17 -12 17 C-12.05220703 15.89591797 -12.05220703 15.89591797 -12.10546875 14.76953125 C-12.37928318 4.8991729 -12.37928318 4.8991729 -9 1 C-5.86128812 -0.56935594 -3.46144178 -0.35201103 0 0 Z " fill="#2B56FE" transform="translate(390,202)"/>
<path d="M0 0 C0.68666245 -0.00540298 1.37332489 -0.01080597 2.08079529 -0.01637268 C4.34532078 -0.02885637 6.60857388 -0.01237315 8.87304688 0.00561523 C10.44958564 0.00546024 12.02612479 0.00397112 13.60266113 0.00120544 C16.90471264 -0.00017838 20.2063297 0.01237613 23.50830078 0.03515625 C27.73867951 0.06354123 31.96833647 0.06080353 36.19876862 0.04806614 C39.45361484 0.04110761 42.70829454 0.04890015 45.96311951 0.06132317 C47.52281556 0.06583601 49.08252951 0.06617592 50.64222717 0.06225777 C52.82305476 0.05934374 55.00289146 0.07585994 57.18359375 0.09765625 C58.42395386 0.10305923 59.66431396 0.10846222 60.94226074 0.11402893 C64.33273409 0.53136623 65.72047786 1.08457092 68.09179688 3.50170898 C69.89325452 8.90608193 69.31915296 14.72139065 69.34179688 20.37670898 C69.36242187 21.65674805 69.38304687 22.93678711 69.40429688 24.25561523 C69.41203125 26.10606445 69.41203125 26.10606445 69.41992188 27.99389648 C69.42926758 29.12166504 69.43861328 30.24943359 69.44824219 31.41137695 C69.05001402 34.86396062 68.15395461 36.73103753 66.09179688 39.50170898 C62.95778803 41.06871341 59.46024592 41.35335459 56.09179688 40.50170898 C52.09179688 35.50170898 52.09179688 35.50170898 52.09179688 17.50170898 C36.58179688 17.50170898 21.07179687 17.50170898 5.09179688 17.50170898 C5.09179688 23.77170898 5.09179688 30.04170898 5.09179688 36.50170898 C1.09179688 40.50170898 1.09179688 40.50170898 -0.90820312 41.03295898 C-1.89820313 41.01749023 -1.89820313 41.01749023 -2.90820312 41.00170898 C-3.89820313 41.01717773 -3.89820313 41.01717773 -4.90820312 41.03295898 C-7.88977209 40.24097973 -9.00430434 38.91617224 -10.90820312 36.50170898 C-11.42578125 33.17358398 -11.42578125 33.17358398 -11.43945312 29.25170898 C-11.44328003 28.55658203 -11.44710693 27.86145508 -11.4510498 27.14526367 C-11.45376492 25.67942858 -11.44643148 24.21354471 -11.4296875 22.74780273 C-11.40826731 20.50841923 -11.42949755 18.27224312 -11.45507812 16.03295898 C-11.45243477 14.60586859 -11.44730963 13.1787802 -11.43945312 11.75170898 C-11.43494141 10.45749023 -11.43042969 9.16327148 -11.42578125 7.82983398 C-10.3551953 0.94576435 -6.40592819 0.00085819 0 0 Z " fill="#2C56FE" transform="translate(145.908203125,77.498291015625)"/>
<path d="M0 0 C1.01317291 -0.01073296 1.01317291 -0.01073296 2.04681396 -0.02168274 C4.26888668 -0.0385257 6.48892895 -0.01919687 8.7109375 0.00219727 C10.26123216 0.00136814 11.81152673 -0.00109288 13.36181641 -0.00511169 C16.60671535 -0.00796664 19.85092288 0.00670062 23.09570312 0.03417969 C27.24877482 0.06826296 31.40061059 0.06224195 35.55374146 0.04351711 C38.75376634 0.03293318 41.95350512 0.04189738 45.15350342 0.05690193 C46.68445994 0.06207405 48.21544645 0.06161372 49.74639893 0.05535698 C51.88887452 0.04988748 54.02959914 0.07033081 56.171875 0.09765625 C57.3892334 0.10385483 58.6065918 0.11005341 59.86083984 0.11643982 C63.70687784 0.73019368 65.38373796 1.86591067 68.0859375 4.63110352 C68.73291016 7.68383789 68.73291016 7.68383789 68.75 11.22485352 C68.75644531 12.50231445 68.76289063 13.77977539 68.76953125 15.09594727 C68.75905762 15.75836426 68.74858398 16.42078125 68.73779297 17.10327148 C68.71100279 19.12617324 68.73754938 21.14352969 68.76953125 23.16625977 C68.76308594 24.4437207 68.75664062 25.72118164 68.75 27.03735352 C68.74436035 28.20588867 68.7387207 29.37442383 68.73291016 30.57836914 C68.0859375 33.63110352 68.0859375 33.63110352 65.73193359 36.01196289 C62.47177514 38.00692237 60.84711 38.2579656 57.0859375 37.63110352 C53.74832705 35.480199 52.35122817 34.42697552 51.0859375 30.63110352 C51.0859375 26.34110352 51.0859375 22.05110352 51.0859375 17.63110352 C35.9059375 17.63110352 20.7259375 17.63110352 5.0859375 17.63110352 C5.0859375 22.58110352 5.0859375 27.53110352 5.0859375 32.63110352 C0.0859375 37.63110352 0.0859375 37.63110352 -3.4140625 38.25610352 C-6.78933657 37.653376 -8.53198567 37.06648537 -10.87988281 34.56616211 C-13.34760173 29.94880137 -12.61952956 24.22198591 -12.5390625 19.13110352 C-12.55839844 17.9077832 -12.57773438 16.68446289 -12.59765625 15.42407227 C-12.59121094 14.24458008 -12.58476562 13.06508789 -12.578125 11.84985352 C-12.57248535 10.77670898 -12.5668457 9.70356445 -12.56103516 8.59790039 C-11.07042741 1.76247952 -6.46881224 0.00511062 0 0 Z " fill="#2C57FE" transform="translate(252.9140625,40.368896484375)"/>
<path d="M0 0 C0.68680847 -0.0071553 1.37361694 -0.01431061 2.08123779 -0.02168274 C4.34057102 -0.0385259 6.59790764 -0.01919854 8.85717773 0.00219727 C10.43228825 0.00136824 12.00739867 -0.00109241 13.58250427 -0.00511169 C16.87867365 -0.00796653 20.17416231 0.00670133 23.47021484 0.03417969 C27.69288042 0.06829092 31.91433137 0.06223251 36.1370554 0.04351711 C39.38765064 0.03294447 42.63796364 0.04188668 45.88853264 0.05690193 C47.44543558 0.06208044 49.00236803 0.06160594 50.55926704 0.05535698 C52.73546795 0.04990005 54.90993435 0.07028987 57.0859375 0.09765625 C58.3232814 0.10385483 59.56062531 0.11005341 60.83546448 0.11643982 C64.5580055 0.72604032 65.74988817 1.63727273 67.97827148 4.63110352 C68.49584961 7.59204102 68.49584961 7.59204102 68.50952148 11.00610352 C68.51725586 12.85461914 68.51725586 12.85461914 68.52514648 14.74047852 C68.50967773 16.02438477 68.49420898 17.30829102 68.47827148 18.63110352 C68.50147461 20.55696289 68.50147461 20.55696289 68.52514648 22.52172852 C68.51999023 23.75407227 68.51483398 24.98641602 68.50952148 26.25610352 C68.50500977 27.38274414 68.50049805 28.50938477 68.49584961 29.67016602 C67.87047671 33.24777095 66.80351139 34.42314291 63.97827148 36.63110352 C61.23737921 37.35915303 58.74805942 37.20553592 55.97827148 36.63110352 C53.00968992 34.42369671 52.14961358 33.14512979 50.97827148 29.63110352 C50.97827148 25.67110352 50.97827148 21.71110352 50.97827148 17.63110352 C35.79827148 17.63110352 20.61827148 17.63110352 4.97827148 17.63110352 C4.97827148 22.25110352 4.97827148 26.87110352 4.97827148 31.63110352 C2.91577148 35.00610352 2.91577148 35.00610352 -0.02172852 36.63110352 C-4.1920087 37.37579641 -6.1311832 37.2048951 -9.70141602 34.90454102 C-13.76572542 30.57637553 -12.73778608 24.16740358 -12.64672852 18.63110352 C-12.66606445 17.45547852 -12.68540039 16.27985352 -12.70532227 15.06860352 C-12.69887695 13.93422852 -12.69243164 12.79985352 -12.68579102 11.63110352 C-12.68015137 10.59985352 -12.67451172 9.56860352 -12.66870117 8.50610352 C-11.12935499 1.66559763 -6.45143851 0.00501135 0 0 Z " fill="#2B56FE" transform="translate(40.021728515625,137.368896484375)"/>
<path d="M0 0 C3.09388507 2.30007775 3.91775341 3.47113891 4.51757812 7.328125 C4.52208984 8.62234375 4.52660156 9.9165625 4.53125 11.25 C4.5350769 11.94512695 4.53890381 12.64025391 4.54284668 13.35644531 C4.5455618 14.82228041 4.53822835 16.28816428 4.52148438 17.75390625 C4.50006419 19.99328975 4.52129443 22.22946587 4.546875 24.46875 C4.54423165 25.89584039 4.5391065 27.32292879 4.53125 28.75 C4.52673828 30.04421875 4.52222656 31.3384375 4.51757812 32.671875 C3.92081106 36.50919979 3.05716949 37.69070951 0 40 C-2.73962288 40.72771233 -5.23214139 40.57971577 -8 40 C-10.43119623 38.12984906 -11.64069173 36.71861655 -13 34 C-13.27263935 29.40106988 -13.23167643 24.79358678 -13.25 20.1875 C-13.270625 18.90294922 -13.29125 17.61839844 -13.3125 16.29492188 C-13.31765625 15.05677734 -13.3228125 13.81863281 -13.328125 12.54296875 C-13.3374707 11.40883545 -13.34681641 10.27470215 -13.35644531 9.10620117 C-12.95917862 5.64426688 -12.04284647 3.79216156 -10 1 C-6.62055069 -1.56372016 -3.97046734 -1.15805297 0 0 Z " fill="#2C56FE" transform="translate(317,98)"/>
<path d="M0 0 C4.9645442 4.89314831 4.54683432 9.21321718 4.59570312 15.859375 C4.58933838 16.53935547 4.58297363 17.21933594 4.57641602 17.91992188 C4.56253267 19.99511671 4.59666179 22.0658095 4.63476562 24.140625 C4.63283203 25.45546875 4.63089844 26.7703125 4.62890625 28.125 C4.62963135 29.32382813 4.63035645 30.52265625 4.63110352 31.7578125 C3.82071036 35.92107018 2.29364707 37.40709698 -1 40 C-4.5 40.625 -4.5 40.625 -8 40 C-11.29364707 37.40709698 -12.82071036 35.92107018 -13.63110352 31.7578125 C-13.63037842 30.55898437 -13.62965332 29.36015625 -13.62890625 28.125 C-13.63083984 26.81015625 -13.63277344 25.4953125 -13.63476562 24.140625 C-13.62227783 23.46064453 -13.60979004 22.78066406 -13.59692383 22.08007812 C-13.5625849 20.00512993 -13.57628011 17.93444091 -13.59570312 15.859375 C-13.51196899 4.47153274 -13.51196899 4.47153274 -9 0 C-5.39297148 -1.20234284 -3.64185324 -1.0405295 0 0 Z " fill="#2C57FD" transform="translate(254,98)"/>
<path d="M0 0 C2.6495391 0.45700469 4.08458331 1.36494373 5.90234375 3.328125 C7.42327809 7.89092801 7.12773858 12.42357068 7.15234375 17.203125 C7.17296875 18.19699219 7.19359375 19.19085938 7.21484375 20.21484375 C7.26417656 29.42774616 7.26417656 29.42774616 3.90234375 33.328125 C0.7729191 34.89283733 -2.70847848 35.02514458 -6.09765625 34.328125 C-8.81283278 32.18374904 -9.9734127 30.99482056 -10.61523438 27.55078125 C-10.61974609 26.50792969 -10.62425781 25.46507812 -10.62890625 24.390625 C-10.6340625 23.24851563 -10.63921875 22.10640625 -10.64453125 20.9296875 C-10.6290625 19.74117187 -10.61359375 18.55265625 -10.59765625 17.328125 C-10.613125 16.13960937 -10.62859375 14.95109375 -10.64453125 13.7265625 C-10.639375 12.58445313 -10.63421875 11.44234375 -10.62890625 10.265625 C-10.62439453 9.22277344 -10.61988281 8.17992187 -10.61523438 7.10546875 C-9.4717384 0.9694262 -5.56771734 -0.29030928 0 0 Z " fill="#2C56FE" transform="translate(208.09765625,137.671875)"/>
<path d="M0 0 C0.680625 0.06445312 1.36125 0.12890625 2.0625 0.1953125 C4.78018242 1.14869303 5.51395767 2.42828123 7 4.875 C7.62343985 9.01870898 7.46351208 13.18942062 7.4375 17.375 C7.4674707 19.08623047 7.4674707 19.08623047 7.49804688 20.83203125 C7.49740234 21.92902344 7.49675781 23.02601563 7.49609375 24.15625 C7.49887329 25.65768555 7.49887329 25.65768555 7.50170898 27.18945312 C6.86952048 30.57343052 5.65239699 31.75234022 3 33.875 C0.26037712 34.60271233 -2.23214139 34.45471577 -5 33.875 C-7.43119623 32.00484906 -8.64069173 30.59361655 -10 27.875 C-10.26640863 24.44357616 -10.23156403 21.00311283 -10.25 17.5625 C-10.270625 16.61181641 -10.29125 15.66113281 -10.3125 14.68164062 C-10.36209388 5.81053513 -10.36209388 5.81053513 -7 1.875 C-3.88134716 -0.2041019 -3.46260478 -0.40659374 0 0 Z " fill="#2C56FE" transform="translate(101,247.125)"/>
<path d="M0 0 C2.66017836 2.11607207 3.86934759 3.30064406 4.50170898 6.68554688 C4.49985596 7.68650391 4.49800293 8.68746094 4.49609375 9.71875 C4.49673828 10.81574219 4.49738281 11.91273438 4.49804688 13.04296875 C4.47806641 14.18378906 4.45808594 15.32460937 4.4375 16.5 C4.44458984 17.64082031 4.45167969 18.78164062 4.45898438 19.95703125 C4.38685529 29.4003934 4.38685529 29.4003934 1 33 C-1.64943973 34.0642101 -4.16276278 34.24334978 -7 34 C-10.48131633 31.92602432 -11.71486282 30.85541154 -13 27 C-13.25424949 23.54605916 -13.23128473 20.08732577 -13.25 16.625 C-13.270625 15.67882812 -13.29125 14.73265625 -13.3125 13.7578125 C-13.36189373 4.96572901 -13.36189373 4.96572901 -10 1 C-6.87057535 -0.56471233 -3.38917777 -0.69701958 0 0 Z " fill="#2B56FE" transform="translate(104,194)"/>
<path d="M0 0 C2.05938216 1.57885966 2.84571211 2.69142423 4 5 C4.32135165 8.763882 4.32437846 12.53659322 4.375 16.3125 C4.41238281 17.35857422 4.44976562 18.40464844 4.48828125 19.48242188 C4.57672259 27.20138583 4.57672259 27.20138583 1.6953125 31.19140625 C-1.87652417 33.58816042 -3.77966445 33.75363135 -8 33 C-10.69140625 31.18359375 -10.69140625 31.18359375 -13 28 C-13.66683843 24.1303736 -13.5615884 20.35236731 -13.4375 16.4375 C-13.43169922 15.39658203 -13.42589844 14.35566406 -13.41992188 13.28320312 C-13.28190425 4.69850712 -13.28190425 4.69850712 -11 1 C-7.4367155 -1.7714435 -4.20758349 -0.99451973 0 0 Z " fill="#2B56FD" transform="translate(41,248)"/>
<path d="M0 0 C2.69140625 1.81640625 2.69140625 1.81640625 5 5 C5.66683843 8.8696264 5.5615884 12.64763269 5.4375 16.5625 C5.43169922 17.60341797 5.42589844 18.64433594 5.41992188 19.71679688 C5.28190425 28.30149288 5.28190425 28.30149288 3 32 C0.30412197 34.09679403 -1.092944 33.99510821 -4.5625 33.8125 C-7.89475039 33.02487718 -9.05370761 32.70318387 -11 30 C-12.99025899 26.01948202 -12.31631959 21.06452497 -12.375 16.6875 C-12.41238281 15.64142578 -12.44976563 14.59535156 -12.48828125 13.51757812 C-12.57672259 5.79861417 -12.57672259 5.79861417 -9.6953125 1.80859375 C-6.12347583 -0.58816042 -4.22033555 -0.75363135 0 0 Z " fill="#2C57FD" transform="translate(40,194)"/>
<path d="M0 0 C0.66 -0.0103125 1.32 -0.020625 2 -0.03125 C4.9330184 0.74783301 6.09463164 2.16558247 8 4.5 C8.51757812 7.27734375 8.51757812 7.27734375 8.53125 10.4375 C8.53640625 11.57960937 8.5415625 12.72171875 8.546875 13.8984375 C8.53140625 15.08695313 8.5159375 16.27546875 8.5 17.5 C8.51546875 18.68851563 8.5309375 19.87703125 8.546875 21.1015625 C8.54171875 22.24367187 8.5365625 23.38578125 8.53125 24.5625 C8.52673828 25.60535156 8.52222656 26.64820313 8.51757812 27.72265625 C7.87587557 31.16605635 6.70740113 32.34874103 4 34.5 C2 35.03125 2 35.03125 0 35 C-0.99 35.01546875 -0.99 35.01546875 -2 35.03125 C-4.9330184 34.25216699 -6.09463164 32.83441753 -8 30.5 C-8.51757812 27.72265625 -8.51757812 27.72265625 -8.53125 24.5625 C-8.53640625 23.42039063 -8.5415625 22.27828125 -8.546875 21.1015625 C-8.53140625 19.91304687 -8.5159375 18.72453125 -8.5 17.5 C-8.51546875 16.31148437 -8.5309375 15.12296875 -8.546875 13.8984375 C-8.54171875 12.75632813 -8.5365625 11.61421875 -8.53125 10.4375 C-8.52673828 9.39464844 -8.52222656 8.35179687 -8.51757812 7.27734375 C-7.64442252 2.5919578 -4.80333712 -0.07505214 0 0 Z " fill="#2C57FE" transform="translate(143,137.5)"/>
<path d="M0 0 C2.63290532 0.50279301 4.0876938 1.4034593 5.90234375 3.36328125 C7.17098539 7.16920618 7.12554447 10.77198766 7.15234375 14.73828125 C7.17296875 15.49367187 7.19359375 16.2490625 7.21484375 17.02734375 C7.24707809 21.6368549 6.88397911 24.61452611 3.90234375 28.36328125 C0.76363187 29.93263719 -1.63621447 29.71529228 -5.09765625 29.36328125 C-7.92788685 27.33700021 -9.79453972 25.74690022 -10.56030273 22.25146484 C-10.73534362 19.77004823 -10.73059526 17.34958808 -10.66015625 14.86328125 C-10.67111328 14.02152344 -10.68207031 13.17976562 -10.69335938 12.3125 C-10.64523413 8.23789629 -10.39781101 5.87820758 -8.3125 2.30078125 C-5.315588 -0.32085606 -3.80924392 -0.24827474 0 0 Z " fill="#2B56FE" transform="translate(208.09765625,191.63671875)"/>
<path d="M0 0 C0.66 -0.0103125 1.32 -0.020625 2 -0.03125 C5.16057725 0.80827833 6.14578168 1.76746774 8 4.5 C8.59553625 8.00875225 8.55781655 11.44910039 8.5 15 C8.51546875 15.95003906 8.5309375 16.90007812 8.546875 17.87890625 C8.50821313 24.75105434 8.50821313 24.75105434 6.21875 28.125 C3.89799712 29.56321305 2.70421222 30.04225332 0 30 C-0.66 30.0103125 -1.32 30.020625 -2 30.03125 C-5.16057725 29.19172167 -6.14578168 28.23253226 -8 25.5 C-8.59553625 21.99124775 -8.55781655 18.55089961 -8.5 15 C-8.51546875 14.04996094 -8.5309375 13.09992188 -8.546875 12.12109375 C-8.50821313 5.24894566 -8.50821313 5.24894566 -6.21875 1.875 C-3.89799712 0.43678695 -2.70421222 -0.04225332 0 0 Z " fill="#2C57FE" transform="translate(143,191.5)"/>
<path d="M0 0 C0.7528125 -0.01289063 1.505625 -0.02578125 2.28125 -0.0390625 C5.69379656 0.98229827 6.70345173 2.59207442 8.5 5.625 C8.92156306 8.46255551 9.10675574 10.80304605 9.0625 13.625 C9.08634766 14.32367188 9.11019531 15.02234375 9.13476562 15.7421875 C9.12364392 19.67185822 8.62386008 21.46667632 6.18359375 24.5859375 C3.5 26.625 3.5 26.625 0 27.25 C-4.48021129 26.44996227 -5.71426081 25.18586055 -8.5 21.625 C-8.98000643 18.71514735 -9.16086891 16.50694313 -9.0625 13.625 C-9.07345703 12.92632812 -9.08441406 12.22765625 -9.09570312 11.5078125 C-9.04535559 7.94992034 -8.56615294 5.73667912 -6.74609375 2.6640625 C-4.25572244 0.40323846 -3.30940734 -0.05666793 0 0 Z " fill="#2B56FE" transform="translate(249.5,157.375)"/>
<path d="M0 0 C2.2265625 1.45703125 2.2265625 1.45703125 4 4 C4.58409849 7.01281769 4.55866209 9.93979442 4.5 13 C4.51546875 13.80695313 4.5309375 14.61390625 4.546875 15.4453125 C4.52173107 19.25461782 4.45134431 21.35861597 2.21875 24.53125 C-0.77542224 26.51330768 -2.60132662 26.56771975 -6.09765625 26.3984375 C-8.99766139 25.79104423 -10.28308671 24.33500208 -12 22 C-13.46230215 19.07539571 -13.20908727 16.44347176 -13.25 13.1875 C-13.27578125 11.96417969 -13.3015625 10.74085938 -13.328125 9.48046875 C-12.97873546 5.77444397 -12.23569119 3.93570129 -10 1 C-6.87057535 -0.56471233 -3.38917777 -0.69701958 0 0 Z " fill="#2C56FE" transform="translate(317,158)"/>
</svg>
